%TF.GenerationSoftware,KiCad,Pcbnew,8.0.8-8.0.8-0~ubuntu24.04.1*%
%TF.CreationDate,2025-02-20T16:37:28+05:30*%
%TF.ProjectId,STM32_BT_IMU,53544d33-325f-4425-945f-494d552e6b69,rev?*%
%TF.SameCoordinates,Original*%
%TF.FileFunction,Paste,Top*%
%TF.FilePolarity,Positive*%
%FSLAX46Y46*%
G04 Gerber Fmt 4.6, Leading zero omitted, Abs format (unit mm)*
G04 Created by KiCad (PCBNEW 8.0.8-8.0.8-0~ubuntu24.04.1) date 2025-02-20 16:37:28*
%MOMM*%
%LPD*%
G01*
G04 APERTURE LIST*
G04 Aperture macros list*
%AMRoundRect*
0 Rectangle with rounded corners*
0 $1 Rounding radius*
0 $2 $3 $4 $5 $6 $7 $8 $9 X,Y pos of 4 corners*
0 Add a 4 corners polygon primitive as box body*
4,1,4,$2,$3,$4,$5,$6,$7,$8,$9,$2,$3,0*
0 Add four circle primitives for the rounded corners*
1,1,$1+$1,$2,$3*
1,1,$1+$1,$4,$5*
1,1,$1+$1,$6,$7*
1,1,$1+$1,$8,$9*
0 Add four rect primitives between the rounded corners*
20,1,$1+$1,$2,$3,$4,$5,0*
20,1,$1+$1,$4,$5,$6,$7,0*
20,1,$1+$1,$6,$7,$8,$9,0*
20,1,$1+$1,$8,$9,$2,$3,0*%
G04 Aperture macros list end*
%ADD10RoundRect,0.218750X-0.256250X0.218750X-0.256250X-0.218750X0.256250X-0.218750X0.256250X0.218750X0*%
%ADD11RoundRect,0.140000X-0.140000X-0.170000X0.140000X-0.170000X0.140000X0.170000X-0.140000X0.170000X0*%
%ADD12RoundRect,0.140000X0.170000X-0.140000X0.170000X0.140000X-0.170000X0.140000X-0.170000X-0.140000X0*%
%ADD13RoundRect,0.250000X0.250000X0.475000X-0.250000X0.475000X-0.250000X-0.475000X0.250000X-0.475000X0*%
%ADD14RoundRect,0.140000X0.140000X0.170000X-0.140000X0.170000X-0.140000X-0.170000X0.140000X-0.170000X0*%
%ADD15RoundRect,0.075000X-0.662500X-0.075000X0.662500X-0.075000X0.662500X0.075000X-0.662500X0.075000X0*%
%ADD16RoundRect,0.075000X-0.075000X-0.662500X0.075000X-0.662500X0.075000X0.662500X-0.075000X0.662500X0*%
%ADD17RoundRect,0.375000X-0.375000X0.625000X-0.375000X-0.625000X0.375000X-0.625000X0.375000X0.625000X0*%
%ADD18RoundRect,0.500000X-1.400000X0.500000X-1.400000X-0.500000X1.400000X-0.500000X1.400000X0.500000X0*%
%ADD19RoundRect,0.135000X-0.135000X-0.185000X0.135000X-0.185000X0.135000X0.185000X-0.135000X0.185000X0*%
%ADD20RoundRect,0.140000X-0.170000X0.140000X-0.170000X-0.140000X0.170000X-0.140000X0.170000X0.140000X0*%
%ADD21RoundRect,0.135000X0.185000X-0.135000X0.185000X0.135000X-0.185000X0.135000X-0.185000X-0.135000X0*%
%ADD22R,0.800000X1.000000*%
%ADD23R,1.500000X0.700000*%
%ADD24RoundRect,0.218750X0.218750X0.256250X-0.218750X0.256250X-0.218750X-0.256250X0.218750X-0.256250X0*%
%ADD25RoundRect,0.135000X0.135000X0.185000X-0.135000X0.185000X-0.135000X-0.185000X0.135000X-0.185000X0*%
%ADD26R,1.200000X1.400000*%
%ADD27R,1.300000X0.450000*%
%ADD28RoundRect,0.225000X-0.225000X-0.250000X0.225000X-0.250000X0.225000X0.250000X-0.225000X0.250000X0*%
%ADD29RoundRect,0.135000X-0.185000X0.135000X-0.185000X-0.135000X0.185000X-0.135000X0.185000X0.135000X0*%
%ADD30RoundRect,0.150000X-0.825000X-0.150000X0.825000X-0.150000X0.825000X0.150000X-0.825000X0.150000X0*%
%ADD31RoundRect,0.250000X-0.475000X0.250000X-0.475000X-0.250000X0.475000X-0.250000X0.475000X0.250000X0*%
G04 APERTURE END LIST*
D10*
%TO.C,FB1*%
X61000000Y-93212500D03*
X61000000Y-94787500D03*
%TD*%
D11*
%TO.C,C1*%
X62020000Y-82500000D03*
X62980000Y-82500000D03*
%TD*%
D12*
%TO.C,C6*%
X60000000Y-90480000D03*
X60000000Y-89520000D03*
%TD*%
D13*
%TO.C,C12*%
X78950000Y-94650000D03*
X77050000Y-94650000D03*
%TD*%
D14*
%TO.C,C7*%
X59480000Y-93000000D03*
X58520000Y-93000000D03*
%TD*%
D12*
%TO.C,C10*%
X58500000Y-87940000D03*
X58500000Y-86980000D03*
%TD*%
D15*
%TO.C,U1*%
X62087500Y-86087500D03*
X62087500Y-86587500D03*
X62087500Y-87087500D03*
X62087500Y-87587500D03*
X62087500Y-88087500D03*
X62087500Y-88587500D03*
X62087500Y-89087500D03*
X62087500Y-89587500D03*
X62087500Y-90087500D03*
X62087500Y-90587500D03*
X62087500Y-91087500D03*
X62087500Y-91587500D03*
D16*
X63500000Y-93000000D03*
X64000000Y-93000000D03*
X64500000Y-93000000D03*
X65000000Y-93000000D03*
X65500000Y-93000000D03*
X66000000Y-93000000D03*
X66500000Y-93000000D03*
X67000000Y-93000000D03*
X67500000Y-93000000D03*
X68000000Y-93000000D03*
X68500000Y-93000000D03*
X69000000Y-93000000D03*
D15*
X70412500Y-91587500D03*
X70412500Y-91087500D03*
X70412500Y-90587500D03*
X70412500Y-90087500D03*
X70412500Y-89587500D03*
X70412500Y-89087500D03*
X70412500Y-88587500D03*
X70412500Y-88087500D03*
X70412500Y-87587500D03*
X70412500Y-87087500D03*
X70412500Y-86587500D03*
X70412500Y-86087500D03*
D16*
X69000000Y-84675000D03*
X68500000Y-84675000D03*
X68000000Y-84675000D03*
X67500000Y-84675000D03*
X67000000Y-84675000D03*
X66500000Y-84675000D03*
X66000000Y-84675000D03*
X65500000Y-84675000D03*
X65000000Y-84675000D03*
X64500000Y-84675000D03*
X64000000Y-84675000D03*
X63500000Y-84675000D03*
%TD*%
D17*
%TO.C,U2*%
X80300000Y-97350000D03*
X78000000Y-97350000D03*
D18*
X78000000Y-103650000D03*
D17*
X75700000Y-97350000D03*
%TD*%
D19*
%TO.C,R5*%
X63890000Y-97900000D03*
X64910000Y-97900000D03*
%TD*%
D20*
%TO.C,C11*%
X58500000Y-89000000D03*
X58500000Y-89960000D03*
%TD*%
D10*
%TO.C,FB2*%
X74500000Y-92712500D03*
X74500000Y-94287500D03*
%TD*%
D12*
%TO.C,C4*%
X60000000Y-86087500D03*
X60000000Y-85127500D03*
%TD*%
D14*
%TO.C,C8*%
X59480000Y-94500000D03*
X58520000Y-94500000D03*
%TD*%
D21*
%TO.C,R2*%
X76000000Y-79010000D03*
X76000000Y-77990000D03*
%TD*%
D22*
%TO.C,SW1*%
X53280000Y-76350000D03*
X51070000Y-76350000D03*
X53280000Y-83650000D03*
X51070000Y-83650000D03*
D23*
X53930000Y-77750000D03*
X53930000Y-80750000D03*
X53930000Y-82250000D03*
%TD*%
D24*
%TO.C,D1*%
X88787500Y-98000000D03*
X87212500Y-98000000D03*
%TD*%
D20*
%TO.C,C3*%
X72500000Y-86020000D03*
X72500000Y-86980000D03*
%TD*%
D25*
%TO.C,R6*%
X67110000Y-97900000D03*
X66090000Y-97900000D03*
%TD*%
D26*
%TO.C,Y1*%
X55300000Y-87280000D03*
X55300000Y-89480000D03*
X57000000Y-89480000D03*
X57000000Y-87280000D03*
%TD*%
D27*
%TO.C,J1*%
X88845000Y-88800000D03*
X88845000Y-88150000D03*
X88845000Y-87500000D03*
X88845000Y-86850000D03*
X88845000Y-86200000D03*
%TD*%
D28*
%TO.C,C5*%
X61225000Y-80000000D03*
X62775000Y-80000000D03*
%TD*%
D25*
%TO.C,R4*%
X89510000Y-95500000D03*
X88490000Y-95500000D03*
%TD*%
D14*
%TO.C,C15*%
X75480000Y-80500000D03*
X74520000Y-80500000D03*
%TD*%
D29*
%TO.C,R1*%
X58000000Y-80490000D03*
X58000000Y-81510000D03*
%TD*%
D21*
%TO.C,R3*%
X76000000Y-87410000D03*
X76000000Y-86390000D03*
%TD*%
D30*
%TO.C,U3*%
X67525000Y-76595000D03*
X67525000Y-77865000D03*
X67525000Y-79135000D03*
X67525000Y-80405000D03*
X72475000Y-80405000D03*
X72475000Y-79135000D03*
X72475000Y-77865000D03*
X72475000Y-76595000D03*
%TD*%
D11*
%TO.C,C9*%
X63540000Y-95000000D03*
X64500000Y-95000000D03*
%TD*%
D12*
%TO.C,C14*%
X65500000Y-79480000D03*
X65500000Y-78520000D03*
%TD*%
D31*
%TO.C,C13*%
X83000000Y-99200000D03*
X83000000Y-101100000D03*
%TD*%
D14*
%TO.C,C2*%
X69980000Y-95000000D03*
X69020000Y-95000000D03*
%TD*%
M02*
