%TF.GenerationSoftware,KiCad,Pcbnew,8.0.8-8.0.8-0~ubuntu24.04.1*%
%TF.CreationDate,2025-02-20T16:37:28+05:30*%
%TF.ProjectId,STM32_BT_IMU,53544d33-325f-4425-945f-494d552e6b69,rev?*%
%TF.SameCoordinates,Original*%
%TF.FileFunction,Legend,Bot*%
%TF.FilePolarity,Positive*%
%FSLAX46Y46*%
G04 Gerber Fmt 4.6, Leading zero omitted, Abs format (unit mm)*
G04 Created by KiCad (PCBNEW 8.0.8-8.0.8-0~ubuntu24.04.1) date 2025-02-20 16:37:28*
%MOMM*%
%LPD*%
G01*
G04 APERTURE LIST*
%ADD10C,0.100000*%
%ADD11C,0.000000*%
G04 APERTURE END LIST*
D10*
X63933609Y-73970550D02*
X63695514Y-73803884D01*
X63933609Y-73684836D02*
X63433609Y-73684836D01*
X63433609Y-73684836D02*
X63433609Y-73875312D01*
X63433609Y-73875312D02*
X63457419Y-73922931D01*
X63457419Y-73922931D02*
X63481228Y-73946741D01*
X63481228Y-73946741D02*
X63528847Y-73970550D01*
X63528847Y-73970550D02*
X63600276Y-73970550D01*
X63600276Y-73970550D02*
X63647895Y-73946741D01*
X63647895Y-73946741D02*
X63671704Y-73922931D01*
X63671704Y-73922931D02*
X63695514Y-73875312D01*
X63695514Y-73875312D02*
X63695514Y-73684836D01*
X63433609Y-74137217D02*
X63933609Y-74470550D01*
X63433609Y-74470550D02*
X63933609Y-74137217D01*
X84779449Y-79885990D02*
X84803258Y-79909800D01*
X84803258Y-79909800D02*
X84874687Y-79933609D01*
X84874687Y-79933609D02*
X84922306Y-79933609D01*
X84922306Y-79933609D02*
X84993734Y-79909800D01*
X84993734Y-79909800D02*
X85041353Y-79862180D01*
X85041353Y-79862180D02*
X85065163Y-79814561D01*
X85065163Y-79814561D02*
X85088972Y-79719323D01*
X85088972Y-79719323D02*
X85088972Y-79647895D01*
X85088972Y-79647895D02*
X85065163Y-79552657D01*
X85065163Y-79552657D02*
X85041353Y-79505038D01*
X85041353Y-79505038D02*
X84993734Y-79457419D01*
X84993734Y-79457419D02*
X84922306Y-79433609D01*
X84922306Y-79433609D02*
X84874687Y-79433609D01*
X84874687Y-79433609D02*
X84803258Y-79457419D01*
X84803258Y-79457419D02*
X84779449Y-79481228D01*
X84588972Y-79790752D02*
X84350877Y-79790752D01*
X84636591Y-79933609D02*
X84469925Y-79433609D01*
X84469925Y-79433609D02*
X84303258Y-79933609D01*
X84136592Y-79933609D02*
X84136592Y-79433609D01*
X84136592Y-79433609D02*
X83850878Y-79933609D01*
X83850878Y-79933609D02*
X83850878Y-79433609D01*
X83731830Y-79981228D02*
X83350877Y-79981228D01*
X82993735Y-79933609D02*
X83231830Y-79933609D01*
X83231830Y-79933609D02*
X83231830Y-79433609D01*
X60957419Y-73696741D02*
X60933609Y-73649122D01*
X60933609Y-73649122D02*
X60933609Y-73577693D01*
X60933609Y-73577693D02*
X60957419Y-73506265D01*
X60957419Y-73506265D02*
X61005038Y-73458646D01*
X61005038Y-73458646D02*
X61052657Y-73434836D01*
X61052657Y-73434836D02*
X61147895Y-73411027D01*
X61147895Y-73411027D02*
X61219323Y-73411027D01*
X61219323Y-73411027D02*
X61314561Y-73434836D01*
X61314561Y-73434836D02*
X61362180Y-73458646D01*
X61362180Y-73458646D02*
X61409800Y-73506265D01*
X61409800Y-73506265D02*
X61433609Y-73577693D01*
X61433609Y-73577693D02*
X61433609Y-73625312D01*
X61433609Y-73625312D02*
X61409800Y-73696741D01*
X61409800Y-73696741D02*
X61385990Y-73720550D01*
X61385990Y-73720550D02*
X61219323Y-73720550D01*
X61219323Y-73720550D02*
X61219323Y-73625312D01*
X61433609Y-73934836D02*
X60933609Y-73934836D01*
X60933609Y-73934836D02*
X61433609Y-74220550D01*
X61433609Y-74220550D02*
X60933609Y-74220550D01*
X61433609Y-74458646D02*
X60933609Y-74458646D01*
X60933609Y-74458646D02*
X60933609Y-74577694D01*
X60933609Y-74577694D02*
X60957419Y-74649122D01*
X60957419Y-74649122D02*
X61005038Y-74696741D01*
X61005038Y-74696741D02*
X61052657Y-74720551D01*
X61052657Y-74720551D02*
X61147895Y-74744360D01*
X61147895Y-74744360D02*
X61219323Y-74744360D01*
X61219323Y-74744360D02*
X61314561Y-74720551D01*
X61314561Y-74720551D02*
X61362180Y-74696741D01*
X61362180Y-74696741D02*
X61409800Y-74649122D01*
X61409800Y-74649122D02*
X61433609Y-74577694D01*
X61433609Y-74577694D02*
X61433609Y-74458646D01*
X80909800Y-73161027D02*
X80933609Y-73232455D01*
X80933609Y-73232455D02*
X80933609Y-73351503D01*
X80933609Y-73351503D02*
X80909800Y-73399122D01*
X80909800Y-73399122D02*
X80885990Y-73422931D01*
X80885990Y-73422931D02*
X80838371Y-73446741D01*
X80838371Y-73446741D02*
X80790752Y-73446741D01*
X80790752Y-73446741D02*
X80743133Y-73422931D01*
X80743133Y-73422931D02*
X80719323Y-73399122D01*
X80719323Y-73399122D02*
X80695514Y-73351503D01*
X80695514Y-73351503D02*
X80671704Y-73256265D01*
X80671704Y-73256265D02*
X80647895Y-73208646D01*
X80647895Y-73208646D02*
X80624085Y-73184836D01*
X80624085Y-73184836D02*
X80576466Y-73161027D01*
X80576466Y-73161027D02*
X80528847Y-73161027D01*
X80528847Y-73161027D02*
X80481228Y-73184836D01*
X80481228Y-73184836D02*
X80457419Y-73208646D01*
X80457419Y-73208646D02*
X80433609Y-73256265D01*
X80433609Y-73256265D02*
X80433609Y-73375312D01*
X80433609Y-73375312D02*
X80457419Y-73446741D01*
X80433609Y-73613407D02*
X80933609Y-73732455D01*
X80933609Y-73732455D02*
X80576466Y-73827693D01*
X80576466Y-73827693D02*
X80933609Y-73922931D01*
X80933609Y-73922931D02*
X80433609Y-74041979D01*
X80933609Y-74232455D02*
X80433609Y-74232455D01*
X80433609Y-74232455D02*
X80433609Y-74351503D01*
X80433609Y-74351503D02*
X80457419Y-74422931D01*
X80457419Y-74422931D02*
X80505038Y-74470550D01*
X80505038Y-74470550D02*
X80552657Y-74494360D01*
X80552657Y-74494360D02*
X80647895Y-74518169D01*
X80647895Y-74518169D02*
X80719323Y-74518169D01*
X80719323Y-74518169D02*
X80814561Y-74494360D01*
X80814561Y-74494360D02*
X80862180Y-74470550D01*
X80862180Y-74470550D02*
X80909800Y-74422931D01*
X80909800Y-74422931D02*
X80933609Y-74351503D01*
X80933609Y-74351503D02*
X80933609Y-74232455D01*
X80933609Y-74732455D02*
X80433609Y-74732455D01*
X80433609Y-75065788D02*
X80433609Y-75161026D01*
X80433609Y-75161026D02*
X80457419Y-75208645D01*
X80457419Y-75208645D02*
X80505038Y-75256264D01*
X80505038Y-75256264D02*
X80600276Y-75280074D01*
X80600276Y-75280074D02*
X80766942Y-75280074D01*
X80766942Y-75280074D02*
X80862180Y-75256264D01*
X80862180Y-75256264D02*
X80909800Y-75208645D01*
X80909800Y-75208645D02*
X80933609Y-75161026D01*
X80933609Y-75161026D02*
X80933609Y-75065788D01*
X80933609Y-75065788D02*
X80909800Y-75018169D01*
X80909800Y-75018169D02*
X80862180Y-74970550D01*
X80862180Y-74970550D02*
X80766942Y-74946741D01*
X80766942Y-74946741D02*
X80600276Y-74946741D01*
X80600276Y-74946741D02*
X80505038Y-74970550D01*
X80505038Y-74970550D02*
X80457419Y-75018169D01*
X80457419Y-75018169D02*
X80433609Y-75065788D01*
X75957419Y-73446741D02*
X75933609Y-73399122D01*
X75933609Y-73399122D02*
X75933609Y-73327693D01*
X75933609Y-73327693D02*
X75957419Y-73256265D01*
X75957419Y-73256265D02*
X76005038Y-73208646D01*
X76005038Y-73208646D02*
X76052657Y-73184836D01*
X76052657Y-73184836D02*
X76147895Y-73161027D01*
X76147895Y-73161027D02*
X76219323Y-73161027D01*
X76219323Y-73161027D02*
X76314561Y-73184836D01*
X76314561Y-73184836D02*
X76362180Y-73208646D01*
X76362180Y-73208646D02*
X76409800Y-73256265D01*
X76409800Y-73256265D02*
X76433609Y-73327693D01*
X76433609Y-73327693D02*
X76433609Y-73375312D01*
X76433609Y-73375312D02*
X76409800Y-73446741D01*
X76409800Y-73446741D02*
X76385990Y-73470550D01*
X76385990Y-73470550D02*
X76219323Y-73470550D01*
X76219323Y-73470550D02*
X76219323Y-73375312D01*
X76433609Y-73684836D02*
X75933609Y-73684836D01*
X75933609Y-73684836D02*
X76433609Y-73970550D01*
X76433609Y-73970550D02*
X75933609Y-73970550D01*
X76433609Y-74208646D02*
X75933609Y-74208646D01*
X75933609Y-74208646D02*
X75933609Y-74327694D01*
X75933609Y-74327694D02*
X75957419Y-74399122D01*
X75957419Y-74399122D02*
X76005038Y-74446741D01*
X76005038Y-74446741D02*
X76052657Y-74470551D01*
X76052657Y-74470551D02*
X76147895Y-74494360D01*
X76147895Y-74494360D02*
X76219323Y-74494360D01*
X76219323Y-74494360D02*
X76314561Y-74470551D01*
X76314561Y-74470551D02*
X76362180Y-74446741D01*
X76362180Y-74446741D02*
X76409800Y-74399122D01*
X76409800Y-74399122D02*
X76433609Y-74327694D01*
X76433609Y-74327694D02*
X76433609Y-74208646D01*
X83743133Y-72934836D02*
X83743133Y-73315789D01*
X83933609Y-73125312D02*
X83552657Y-73125312D01*
X83433609Y-73506265D02*
X83433609Y-73815789D01*
X83433609Y-73815789D02*
X83624085Y-73649122D01*
X83624085Y-73649122D02*
X83624085Y-73720551D01*
X83624085Y-73720551D02*
X83647895Y-73768170D01*
X83647895Y-73768170D02*
X83671704Y-73791979D01*
X83671704Y-73791979D02*
X83719323Y-73815789D01*
X83719323Y-73815789D02*
X83838371Y-73815789D01*
X83838371Y-73815789D02*
X83885990Y-73791979D01*
X83885990Y-73791979D02*
X83909800Y-73768170D01*
X83909800Y-73768170D02*
X83933609Y-73720551D01*
X83933609Y-73720551D02*
X83933609Y-73577694D01*
X83933609Y-73577694D02*
X83909800Y-73530075D01*
X83909800Y-73530075D02*
X83885990Y-73506265D01*
X83885990Y-74030074D02*
X83909800Y-74053884D01*
X83909800Y-74053884D02*
X83933609Y-74030074D01*
X83933609Y-74030074D02*
X83909800Y-74006265D01*
X83909800Y-74006265D02*
X83885990Y-74030074D01*
X83885990Y-74030074D02*
X83933609Y-74030074D01*
X83433609Y-74220550D02*
X83433609Y-74530074D01*
X83433609Y-74530074D02*
X83624085Y-74363407D01*
X83624085Y-74363407D02*
X83624085Y-74434836D01*
X83624085Y-74434836D02*
X83647895Y-74482455D01*
X83647895Y-74482455D02*
X83671704Y-74506264D01*
X83671704Y-74506264D02*
X83719323Y-74530074D01*
X83719323Y-74530074D02*
X83838371Y-74530074D01*
X83838371Y-74530074D02*
X83885990Y-74506264D01*
X83885990Y-74506264D02*
X83909800Y-74482455D01*
X83909800Y-74482455D02*
X83933609Y-74434836D01*
X83933609Y-74434836D02*
X83933609Y-74291979D01*
X83933609Y-74291979D02*
X83909800Y-74244360D01*
X83909800Y-74244360D02*
X83885990Y-74220550D01*
X83433609Y-74672931D02*
X83933609Y-74839597D01*
X83933609Y-74839597D02*
X83433609Y-75006264D01*
X78659800Y-73161027D02*
X78683609Y-73232455D01*
X78683609Y-73232455D02*
X78683609Y-73351503D01*
X78683609Y-73351503D02*
X78659800Y-73399122D01*
X78659800Y-73399122D02*
X78635990Y-73422931D01*
X78635990Y-73422931D02*
X78588371Y-73446741D01*
X78588371Y-73446741D02*
X78540752Y-73446741D01*
X78540752Y-73446741D02*
X78493133Y-73422931D01*
X78493133Y-73422931D02*
X78469323Y-73399122D01*
X78469323Y-73399122D02*
X78445514Y-73351503D01*
X78445514Y-73351503D02*
X78421704Y-73256265D01*
X78421704Y-73256265D02*
X78397895Y-73208646D01*
X78397895Y-73208646D02*
X78374085Y-73184836D01*
X78374085Y-73184836D02*
X78326466Y-73161027D01*
X78326466Y-73161027D02*
X78278847Y-73161027D01*
X78278847Y-73161027D02*
X78231228Y-73184836D01*
X78231228Y-73184836D02*
X78207419Y-73208646D01*
X78207419Y-73208646D02*
X78183609Y-73256265D01*
X78183609Y-73256265D02*
X78183609Y-73375312D01*
X78183609Y-73375312D02*
X78207419Y-73446741D01*
X78183609Y-73613407D02*
X78683609Y-73732455D01*
X78683609Y-73732455D02*
X78326466Y-73827693D01*
X78326466Y-73827693D02*
X78683609Y-73922931D01*
X78683609Y-73922931D02*
X78183609Y-74041979D01*
X78635990Y-74518169D02*
X78659800Y-74494360D01*
X78659800Y-74494360D02*
X78683609Y-74422931D01*
X78683609Y-74422931D02*
X78683609Y-74375312D01*
X78683609Y-74375312D02*
X78659800Y-74303884D01*
X78659800Y-74303884D02*
X78612180Y-74256265D01*
X78612180Y-74256265D02*
X78564561Y-74232455D01*
X78564561Y-74232455D02*
X78469323Y-74208646D01*
X78469323Y-74208646D02*
X78397895Y-74208646D01*
X78397895Y-74208646D02*
X78302657Y-74232455D01*
X78302657Y-74232455D02*
X78255038Y-74256265D01*
X78255038Y-74256265D02*
X78207419Y-74303884D01*
X78207419Y-74303884D02*
X78183609Y-74375312D01*
X78183609Y-74375312D02*
X78183609Y-74422931D01*
X78183609Y-74422931D02*
X78207419Y-74494360D01*
X78207419Y-74494360D02*
X78231228Y-74518169D01*
X78683609Y-74970550D02*
X78683609Y-74732455D01*
X78683609Y-74732455D02*
X78183609Y-74732455D01*
X78683609Y-75137217D02*
X78183609Y-75137217D01*
X78683609Y-75422931D02*
X78397895Y-75208646D01*
X78183609Y-75422931D02*
X78469323Y-75137217D01*
X61743133Y-103934836D02*
X61743133Y-104315789D01*
X61933609Y-104125312D02*
X61552657Y-104125312D01*
X61433609Y-104506265D02*
X61433609Y-104815789D01*
X61433609Y-104815789D02*
X61624085Y-104649122D01*
X61624085Y-104649122D02*
X61624085Y-104720551D01*
X61624085Y-104720551D02*
X61647895Y-104768170D01*
X61647895Y-104768170D02*
X61671704Y-104791979D01*
X61671704Y-104791979D02*
X61719323Y-104815789D01*
X61719323Y-104815789D02*
X61838371Y-104815789D01*
X61838371Y-104815789D02*
X61885990Y-104791979D01*
X61885990Y-104791979D02*
X61909800Y-104768170D01*
X61909800Y-104768170D02*
X61933609Y-104720551D01*
X61933609Y-104720551D02*
X61933609Y-104577694D01*
X61933609Y-104577694D02*
X61909800Y-104530075D01*
X61909800Y-104530075D02*
X61885990Y-104506265D01*
X61885990Y-105030074D02*
X61909800Y-105053884D01*
X61909800Y-105053884D02*
X61933609Y-105030074D01*
X61933609Y-105030074D02*
X61909800Y-105006265D01*
X61909800Y-105006265D02*
X61885990Y-105030074D01*
X61885990Y-105030074D02*
X61933609Y-105030074D01*
X61433609Y-105220550D02*
X61433609Y-105530074D01*
X61433609Y-105530074D02*
X61624085Y-105363407D01*
X61624085Y-105363407D02*
X61624085Y-105434836D01*
X61624085Y-105434836D02*
X61647895Y-105482455D01*
X61647895Y-105482455D02*
X61671704Y-105506264D01*
X61671704Y-105506264D02*
X61719323Y-105530074D01*
X61719323Y-105530074D02*
X61838371Y-105530074D01*
X61838371Y-105530074D02*
X61885990Y-105506264D01*
X61885990Y-105506264D02*
X61909800Y-105482455D01*
X61909800Y-105482455D02*
X61933609Y-105434836D01*
X61933609Y-105434836D02*
X61933609Y-105291979D01*
X61933609Y-105291979D02*
X61909800Y-105244360D01*
X61909800Y-105244360D02*
X61885990Y-105220550D01*
X61433609Y-105672931D02*
X61933609Y-105839597D01*
X61933609Y-105839597D02*
X61433609Y-106006264D01*
X66183609Y-73613408D02*
X66183609Y-73899122D01*
X66683609Y-73756265D02*
X66183609Y-73756265D01*
X66183609Y-74018169D02*
X66683609Y-74351502D01*
X66183609Y-74351502D02*
X66683609Y-74018169D01*
X87196115Y-106622419D02*
X87196115Y-105622419D01*
X86767544Y-106622419D02*
X86767544Y-106098609D01*
X86767544Y-106098609D02*
X86815163Y-106003371D01*
X86815163Y-106003371D02*
X86910401Y-105955752D01*
X86910401Y-105955752D02*
X87053258Y-105955752D01*
X87053258Y-105955752D02*
X87148496Y-106003371D01*
X87148496Y-106003371D02*
X87196115Y-106050990D01*
X86434210Y-105955752D02*
X86053258Y-105955752D01*
X86291353Y-105622419D02*
X86291353Y-106479561D01*
X86291353Y-106479561D02*
X86243734Y-106574800D01*
X86243734Y-106574800D02*
X86148496Y-106622419D01*
X86148496Y-106622419D02*
X86053258Y-106622419D01*
X85862781Y-105955752D02*
X85481829Y-105955752D01*
X85719924Y-105622419D02*
X85719924Y-106479561D01*
X85719924Y-106479561D02*
X85672305Y-106574800D01*
X85672305Y-106574800D02*
X85577067Y-106622419D01*
X85577067Y-106622419D02*
X85481829Y-106622419D01*
X85148495Y-105955752D02*
X85148495Y-106955752D01*
X85148495Y-106003371D02*
X85053257Y-105955752D01*
X85053257Y-105955752D02*
X84862781Y-105955752D01*
X84862781Y-105955752D02*
X84767543Y-106003371D01*
X84767543Y-106003371D02*
X84719924Y-106050990D01*
X84719924Y-106050990D02*
X84672305Y-106146228D01*
X84672305Y-106146228D02*
X84672305Y-106431942D01*
X84672305Y-106431942D02*
X84719924Y-106527180D01*
X84719924Y-106527180D02*
X84767543Y-106574800D01*
X84767543Y-106574800D02*
X84862781Y-106622419D01*
X84862781Y-106622419D02*
X85053257Y-106622419D01*
X85053257Y-106622419D02*
X85148495Y-106574800D01*
X84291352Y-106574800D02*
X84196114Y-106622419D01*
X84196114Y-106622419D02*
X84005638Y-106622419D01*
X84005638Y-106622419D02*
X83910400Y-106574800D01*
X83910400Y-106574800D02*
X83862781Y-106479561D01*
X83862781Y-106479561D02*
X83862781Y-106431942D01*
X83862781Y-106431942D02*
X83910400Y-106336704D01*
X83910400Y-106336704D02*
X84005638Y-106289085D01*
X84005638Y-106289085D02*
X84148495Y-106289085D01*
X84148495Y-106289085D02*
X84243733Y-106241466D01*
X84243733Y-106241466D02*
X84291352Y-106146228D01*
X84291352Y-106146228D02*
X84291352Y-106098609D01*
X84291352Y-106098609D02*
X84243733Y-106003371D01*
X84243733Y-106003371D02*
X84148495Y-105955752D01*
X84148495Y-105955752D02*
X84005638Y-105955752D01*
X84005638Y-105955752D02*
X83910400Y-106003371D01*
X83434209Y-106527180D02*
X83386590Y-106574800D01*
X83386590Y-106574800D02*
X83434209Y-106622419D01*
X83434209Y-106622419D02*
X83481828Y-106574800D01*
X83481828Y-106574800D02*
X83434209Y-106527180D01*
X83434209Y-106527180D02*
X83434209Y-106622419D01*
X83434209Y-106003371D02*
X83386590Y-106050990D01*
X83386590Y-106050990D02*
X83434209Y-106098609D01*
X83434209Y-106098609D02*
X83481828Y-106050990D01*
X83481828Y-106050990D02*
X83434209Y-106003371D01*
X83434209Y-106003371D02*
X83434209Y-106098609D01*
X82243734Y-105574800D02*
X83100876Y-106860514D01*
X81196115Y-105574800D02*
X82053257Y-106860514D01*
X80434210Y-105955752D02*
X80434210Y-106765276D01*
X80434210Y-106765276D02*
X80481829Y-106860514D01*
X80481829Y-106860514D02*
X80529448Y-106908133D01*
X80529448Y-106908133D02*
X80624686Y-106955752D01*
X80624686Y-106955752D02*
X80767543Y-106955752D01*
X80767543Y-106955752D02*
X80862781Y-106908133D01*
X80434210Y-106574800D02*
X80529448Y-106622419D01*
X80529448Y-106622419D02*
X80719924Y-106622419D01*
X80719924Y-106622419D02*
X80815162Y-106574800D01*
X80815162Y-106574800D02*
X80862781Y-106527180D01*
X80862781Y-106527180D02*
X80910400Y-106431942D01*
X80910400Y-106431942D02*
X80910400Y-106146228D01*
X80910400Y-106146228D02*
X80862781Y-106050990D01*
X80862781Y-106050990D02*
X80815162Y-106003371D01*
X80815162Y-106003371D02*
X80719924Y-105955752D01*
X80719924Y-105955752D02*
X80529448Y-105955752D01*
X80529448Y-105955752D02*
X80434210Y-106003371D01*
X79529448Y-106622419D02*
X79529448Y-106098609D01*
X79529448Y-106098609D02*
X79577067Y-106003371D01*
X79577067Y-106003371D02*
X79672305Y-105955752D01*
X79672305Y-105955752D02*
X79862781Y-105955752D01*
X79862781Y-105955752D02*
X79958019Y-106003371D01*
X79529448Y-106574800D02*
X79624686Y-106622419D01*
X79624686Y-106622419D02*
X79862781Y-106622419D01*
X79862781Y-106622419D02*
X79958019Y-106574800D01*
X79958019Y-106574800D02*
X80005638Y-106479561D01*
X80005638Y-106479561D02*
X80005638Y-106384323D01*
X80005638Y-106384323D02*
X79958019Y-106289085D01*
X79958019Y-106289085D02*
X79862781Y-106241466D01*
X79862781Y-106241466D02*
X79624686Y-106241466D01*
X79624686Y-106241466D02*
X79529448Y-106193847D01*
X79053257Y-106622419D02*
X79053257Y-105622419D01*
X78624686Y-106622419D02*
X78624686Y-106098609D01*
X78624686Y-106098609D02*
X78672305Y-106003371D01*
X78672305Y-106003371D02*
X78767543Y-105955752D01*
X78767543Y-105955752D02*
X78910400Y-105955752D01*
X78910400Y-105955752D02*
X79005638Y-106003371D01*
X79005638Y-106003371D02*
X79053257Y-106050990D01*
X77719924Y-106622419D02*
X77719924Y-106098609D01*
X77719924Y-106098609D02*
X77767543Y-106003371D01*
X77767543Y-106003371D02*
X77862781Y-105955752D01*
X77862781Y-105955752D02*
X78053257Y-105955752D01*
X78053257Y-105955752D02*
X78148495Y-106003371D01*
X77719924Y-106574800D02*
X77815162Y-106622419D01*
X77815162Y-106622419D02*
X78053257Y-106622419D01*
X78053257Y-106622419D02*
X78148495Y-106574800D01*
X78148495Y-106574800D02*
X78196114Y-106479561D01*
X78196114Y-106479561D02*
X78196114Y-106384323D01*
X78196114Y-106384323D02*
X78148495Y-106289085D01*
X78148495Y-106289085D02*
X78053257Y-106241466D01*
X78053257Y-106241466D02*
X77815162Y-106241466D01*
X77815162Y-106241466D02*
X77719924Y-106193847D01*
X77243733Y-105955752D02*
X77243733Y-106622419D01*
X77243733Y-106050990D02*
X77196114Y-106003371D01*
X77196114Y-106003371D02*
X77100876Y-105955752D01*
X77100876Y-105955752D02*
X76958019Y-105955752D01*
X76958019Y-105955752D02*
X76862781Y-106003371D01*
X76862781Y-106003371D02*
X76815162Y-106098609D01*
X76815162Y-106098609D02*
X76815162Y-106622419D01*
X75910400Y-106622419D02*
X75910400Y-106098609D01*
X75910400Y-106098609D02*
X75958019Y-106003371D01*
X75958019Y-106003371D02*
X76053257Y-105955752D01*
X76053257Y-105955752D02*
X76243733Y-105955752D01*
X76243733Y-105955752D02*
X76338971Y-106003371D01*
X75910400Y-106574800D02*
X76005638Y-106622419D01*
X76005638Y-106622419D02*
X76243733Y-106622419D01*
X76243733Y-106622419D02*
X76338971Y-106574800D01*
X76338971Y-106574800D02*
X76386590Y-106479561D01*
X76386590Y-106479561D02*
X76386590Y-106384323D01*
X76386590Y-106384323D02*
X76338971Y-106289085D01*
X76338971Y-106289085D02*
X76243733Y-106241466D01*
X76243733Y-106241466D02*
X76005638Y-106241466D01*
X76005638Y-106241466D02*
X75910400Y-106193847D01*
X75434209Y-106622419D02*
X75434209Y-105955752D01*
X75434209Y-105622419D02*
X75481828Y-105670038D01*
X75481828Y-105670038D02*
X75434209Y-105717657D01*
X75434209Y-105717657D02*
X75386590Y-105670038D01*
X75386590Y-105670038D02*
X75434209Y-105622419D01*
X75434209Y-105622419D02*
X75434209Y-105717657D01*
X74958019Y-106527180D02*
X74910400Y-106574800D01*
X74910400Y-106574800D02*
X74958019Y-106622419D01*
X74958019Y-106622419D02*
X75005638Y-106574800D01*
X75005638Y-106574800D02*
X74958019Y-106527180D01*
X74958019Y-106527180D02*
X74958019Y-106622419D01*
X74053258Y-106574800D02*
X74148496Y-106622419D01*
X74148496Y-106622419D02*
X74338972Y-106622419D01*
X74338972Y-106622419D02*
X74434210Y-106574800D01*
X74434210Y-106574800D02*
X74481829Y-106527180D01*
X74481829Y-106527180D02*
X74529448Y-106431942D01*
X74529448Y-106431942D02*
X74529448Y-106146228D01*
X74529448Y-106146228D02*
X74481829Y-106050990D01*
X74481829Y-106050990D02*
X74434210Y-106003371D01*
X74434210Y-106003371D02*
X74338972Y-105955752D01*
X74338972Y-105955752D02*
X74148496Y-105955752D01*
X74148496Y-105955752D02*
X74053258Y-106003371D01*
X73481829Y-106622419D02*
X73577067Y-106574800D01*
X73577067Y-106574800D02*
X73624686Y-106527180D01*
X73624686Y-106527180D02*
X73672305Y-106431942D01*
X73672305Y-106431942D02*
X73672305Y-106146228D01*
X73672305Y-106146228D02*
X73624686Y-106050990D01*
X73624686Y-106050990D02*
X73577067Y-106003371D01*
X73577067Y-106003371D02*
X73481829Y-105955752D01*
X73481829Y-105955752D02*
X73338972Y-105955752D01*
X73338972Y-105955752D02*
X73243734Y-106003371D01*
X73243734Y-106003371D02*
X73196115Y-106050990D01*
X73196115Y-106050990D02*
X73148496Y-106146228D01*
X73148496Y-106146228D02*
X73148496Y-106431942D01*
X73148496Y-106431942D02*
X73196115Y-106527180D01*
X73196115Y-106527180D02*
X73243734Y-106574800D01*
X73243734Y-106574800D02*
X73338972Y-106622419D01*
X73338972Y-106622419D02*
X73481829Y-106622419D01*
X72719924Y-106622419D02*
X72719924Y-105955752D01*
X72719924Y-106050990D02*
X72672305Y-106003371D01*
X72672305Y-106003371D02*
X72577067Y-105955752D01*
X72577067Y-105955752D02*
X72434210Y-105955752D01*
X72434210Y-105955752D02*
X72338972Y-106003371D01*
X72338972Y-106003371D02*
X72291353Y-106098609D01*
X72291353Y-106098609D02*
X72291353Y-106622419D01*
X72291353Y-106098609D02*
X72243734Y-106003371D01*
X72243734Y-106003371D02*
X72148496Y-105955752D01*
X72148496Y-105955752D02*
X72005639Y-105955752D01*
X72005639Y-105955752D02*
X71910400Y-106003371D01*
X71910400Y-106003371D02*
X71862781Y-106098609D01*
X71862781Y-106098609D02*
X71862781Y-106622419D01*
X69207419Y-104196741D02*
X69183609Y-104149122D01*
X69183609Y-104149122D02*
X69183609Y-104077693D01*
X69183609Y-104077693D02*
X69207419Y-104006265D01*
X69207419Y-104006265D02*
X69255038Y-103958646D01*
X69255038Y-103958646D02*
X69302657Y-103934836D01*
X69302657Y-103934836D02*
X69397895Y-103911027D01*
X69397895Y-103911027D02*
X69469323Y-103911027D01*
X69469323Y-103911027D02*
X69564561Y-103934836D01*
X69564561Y-103934836D02*
X69612180Y-103958646D01*
X69612180Y-103958646D02*
X69659800Y-104006265D01*
X69659800Y-104006265D02*
X69683609Y-104077693D01*
X69683609Y-104077693D02*
X69683609Y-104125312D01*
X69683609Y-104125312D02*
X69659800Y-104196741D01*
X69659800Y-104196741D02*
X69635990Y-104220550D01*
X69635990Y-104220550D02*
X69469323Y-104220550D01*
X69469323Y-104220550D02*
X69469323Y-104125312D01*
X69683609Y-104434836D02*
X69183609Y-104434836D01*
X69183609Y-104434836D02*
X69683609Y-104720550D01*
X69683609Y-104720550D02*
X69183609Y-104720550D01*
X69683609Y-104958646D02*
X69183609Y-104958646D01*
X69183609Y-104958646D02*
X69183609Y-105077694D01*
X69183609Y-105077694D02*
X69207419Y-105149122D01*
X69207419Y-105149122D02*
X69255038Y-105196741D01*
X69255038Y-105196741D02*
X69302657Y-105220551D01*
X69302657Y-105220551D02*
X69397895Y-105244360D01*
X69397895Y-105244360D02*
X69469323Y-105244360D01*
X69469323Y-105244360D02*
X69564561Y-105220551D01*
X69564561Y-105220551D02*
X69612180Y-105196741D01*
X69612180Y-105196741D02*
X69659800Y-105149122D01*
X69659800Y-105149122D02*
X69683609Y-105077694D01*
X69683609Y-105077694D02*
X69683609Y-104958646D01*
X67159800Y-103911027D02*
X67183609Y-103982455D01*
X67183609Y-103982455D02*
X67183609Y-104101503D01*
X67183609Y-104101503D02*
X67159800Y-104149122D01*
X67159800Y-104149122D02*
X67135990Y-104172931D01*
X67135990Y-104172931D02*
X67088371Y-104196741D01*
X67088371Y-104196741D02*
X67040752Y-104196741D01*
X67040752Y-104196741D02*
X66993133Y-104172931D01*
X66993133Y-104172931D02*
X66969323Y-104149122D01*
X66969323Y-104149122D02*
X66945514Y-104101503D01*
X66945514Y-104101503D02*
X66921704Y-104006265D01*
X66921704Y-104006265D02*
X66897895Y-103958646D01*
X66897895Y-103958646D02*
X66874085Y-103934836D01*
X66874085Y-103934836D02*
X66826466Y-103911027D01*
X66826466Y-103911027D02*
X66778847Y-103911027D01*
X66778847Y-103911027D02*
X66731228Y-103934836D01*
X66731228Y-103934836D02*
X66707419Y-103958646D01*
X66707419Y-103958646D02*
X66683609Y-104006265D01*
X66683609Y-104006265D02*
X66683609Y-104125312D01*
X66683609Y-104125312D02*
X66707419Y-104196741D01*
X67183609Y-104411026D02*
X66683609Y-104411026D01*
X66683609Y-104411026D02*
X66683609Y-104530074D01*
X66683609Y-104530074D02*
X66707419Y-104601502D01*
X66707419Y-104601502D02*
X66755038Y-104649121D01*
X66755038Y-104649121D02*
X66802657Y-104672931D01*
X66802657Y-104672931D02*
X66897895Y-104696740D01*
X66897895Y-104696740D02*
X66969323Y-104696740D01*
X66969323Y-104696740D02*
X67064561Y-104672931D01*
X67064561Y-104672931D02*
X67112180Y-104649121D01*
X67112180Y-104649121D02*
X67159800Y-104601502D01*
X67159800Y-104601502D02*
X67183609Y-104530074D01*
X67183609Y-104530074D02*
X67183609Y-104411026D01*
X67040752Y-104887217D02*
X67040752Y-105125312D01*
X67183609Y-104839598D02*
X66683609Y-105006264D01*
X66683609Y-105006264D02*
X67183609Y-105172931D01*
X64659800Y-103911027D02*
X64683609Y-103982455D01*
X64683609Y-103982455D02*
X64683609Y-104101503D01*
X64683609Y-104101503D02*
X64659800Y-104149122D01*
X64659800Y-104149122D02*
X64635990Y-104172931D01*
X64635990Y-104172931D02*
X64588371Y-104196741D01*
X64588371Y-104196741D02*
X64540752Y-104196741D01*
X64540752Y-104196741D02*
X64493133Y-104172931D01*
X64493133Y-104172931D02*
X64469323Y-104149122D01*
X64469323Y-104149122D02*
X64445514Y-104101503D01*
X64445514Y-104101503D02*
X64421704Y-104006265D01*
X64421704Y-104006265D02*
X64397895Y-103958646D01*
X64397895Y-103958646D02*
X64374085Y-103934836D01*
X64374085Y-103934836D02*
X64326466Y-103911027D01*
X64326466Y-103911027D02*
X64278847Y-103911027D01*
X64278847Y-103911027D02*
X64231228Y-103934836D01*
X64231228Y-103934836D02*
X64207419Y-103958646D01*
X64207419Y-103958646D02*
X64183609Y-104006265D01*
X64183609Y-104006265D02*
X64183609Y-104125312D01*
X64183609Y-104125312D02*
X64207419Y-104196741D01*
X64635990Y-104696740D02*
X64659800Y-104672931D01*
X64659800Y-104672931D02*
X64683609Y-104601502D01*
X64683609Y-104601502D02*
X64683609Y-104553883D01*
X64683609Y-104553883D02*
X64659800Y-104482455D01*
X64659800Y-104482455D02*
X64612180Y-104434836D01*
X64612180Y-104434836D02*
X64564561Y-104411026D01*
X64564561Y-104411026D02*
X64469323Y-104387217D01*
X64469323Y-104387217D02*
X64397895Y-104387217D01*
X64397895Y-104387217D02*
X64302657Y-104411026D01*
X64302657Y-104411026D02*
X64255038Y-104434836D01*
X64255038Y-104434836D02*
X64207419Y-104482455D01*
X64207419Y-104482455D02*
X64183609Y-104553883D01*
X64183609Y-104553883D02*
X64183609Y-104601502D01*
X64183609Y-104601502D02*
X64207419Y-104672931D01*
X64207419Y-104672931D02*
X64231228Y-104696740D01*
X64683609Y-105149121D02*
X64683609Y-104911026D01*
X64683609Y-104911026D02*
X64183609Y-104911026D01*
X84779449Y-77385990D02*
X84803258Y-77409800D01*
X84803258Y-77409800D02*
X84874687Y-77433609D01*
X84874687Y-77433609D02*
X84922306Y-77433609D01*
X84922306Y-77433609D02*
X84993734Y-77409800D01*
X84993734Y-77409800D02*
X85041353Y-77362180D01*
X85041353Y-77362180D02*
X85065163Y-77314561D01*
X85065163Y-77314561D02*
X85088972Y-77219323D01*
X85088972Y-77219323D02*
X85088972Y-77147895D01*
X85088972Y-77147895D02*
X85065163Y-77052657D01*
X85065163Y-77052657D02*
X85041353Y-77005038D01*
X85041353Y-77005038D02*
X84993734Y-76957419D01*
X84993734Y-76957419D02*
X84922306Y-76933609D01*
X84922306Y-76933609D02*
X84874687Y-76933609D01*
X84874687Y-76933609D02*
X84803258Y-76957419D01*
X84803258Y-76957419D02*
X84779449Y-76981228D01*
X84588972Y-77290752D02*
X84350877Y-77290752D01*
X84636591Y-77433609D02*
X84469925Y-76933609D01*
X84469925Y-76933609D02*
X84303258Y-77433609D01*
X84136592Y-77433609D02*
X84136592Y-76933609D01*
X84136592Y-76933609D02*
X83850878Y-77433609D01*
X83850878Y-77433609D02*
X83850878Y-76933609D01*
X83731830Y-77481228D02*
X83350877Y-77481228D01*
X83231830Y-77433609D02*
X83231830Y-76933609D01*
X83231830Y-77171704D02*
X82946116Y-77171704D01*
X82946116Y-77433609D02*
X82946116Y-76933609D01*
X68743133Y-73434836D02*
X68743133Y-73815789D01*
X68933609Y-73625312D02*
X68552657Y-73625312D01*
X68433609Y-74006265D02*
X68433609Y-74315789D01*
X68433609Y-74315789D02*
X68624085Y-74149122D01*
X68624085Y-74149122D02*
X68624085Y-74220551D01*
X68624085Y-74220551D02*
X68647895Y-74268170D01*
X68647895Y-74268170D02*
X68671704Y-74291979D01*
X68671704Y-74291979D02*
X68719323Y-74315789D01*
X68719323Y-74315789D02*
X68838371Y-74315789D01*
X68838371Y-74315789D02*
X68885990Y-74291979D01*
X68885990Y-74291979D02*
X68909800Y-74268170D01*
X68909800Y-74268170D02*
X68933609Y-74220551D01*
X68933609Y-74220551D02*
X68933609Y-74077694D01*
X68933609Y-74077694D02*
X68909800Y-74030075D01*
X68909800Y-74030075D02*
X68885990Y-74006265D01*
X68885990Y-74530074D02*
X68909800Y-74553884D01*
X68909800Y-74553884D02*
X68933609Y-74530074D01*
X68933609Y-74530074D02*
X68909800Y-74506265D01*
X68909800Y-74506265D02*
X68885990Y-74530074D01*
X68885990Y-74530074D02*
X68933609Y-74530074D01*
X68433609Y-74720550D02*
X68433609Y-75030074D01*
X68433609Y-75030074D02*
X68624085Y-74863407D01*
X68624085Y-74863407D02*
X68624085Y-74934836D01*
X68624085Y-74934836D02*
X68647895Y-74982455D01*
X68647895Y-74982455D02*
X68671704Y-75006264D01*
X68671704Y-75006264D02*
X68719323Y-75030074D01*
X68719323Y-75030074D02*
X68838371Y-75030074D01*
X68838371Y-75030074D02*
X68885990Y-75006264D01*
X68885990Y-75006264D02*
X68909800Y-74982455D01*
X68909800Y-74982455D02*
X68933609Y-74934836D01*
X68933609Y-74934836D02*
X68933609Y-74791979D01*
X68933609Y-74791979D02*
X68909800Y-74744360D01*
X68909800Y-74744360D02*
X68885990Y-74720550D01*
X68433609Y-75172931D02*
X68933609Y-75339597D01*
X68933609Y-75339597D02*
X68433609Y-75506264D01*
D11*
%TO.C,G\u002A\u002A\u002A*%
G36*
X81357745Y-102278159D02*
G01*
X81447842Y-102385689D01*
X81529558Y-102499704D01*
X81537606Y-102512932D01*
X81602454Y-102619516D01*
X81666096Y-102744436D01*
X81714189Y-102859736D01*
X81720045Y-102873776D01*
X81763865Y-103006847D01*
X81797120Y-103142960D01*
X81805694Y-103186542D01*
X81813724Y-103231543D01*
X81819894Y-103272860D01*
X81824432Y-103312981D01*
X81827565Y-103354394D01*
X81829522Y-103399585D01*
X81830529Y-103451042D01*
X81830814Y-103511252D01*
X81830606Y-103563657D01*
X81829714Y-103616184D01*
X81827903Y-103662098D01*
X81824947Y-103703888D01*
X81824388Y-103709070D01*
X81820619Y-103744040D01*
X81814689Y-103785041D01*
X81806932Y-103829380D01*
X81797120Y-103879543D01*
X81783708Y-103940060D01*
X81746468Y-104071902D01*
X81699023Y-104201297D01*
X81641934Y-104327261D01*
X81575764Y-104448808D01*
X81501075Y-104564953D01*
X81418428Y-104674713D01*
X81328384Y-104777101D01*
X81231507Y-104871133D01*
X81193366Y-104904383D01*
X81078899Y-104994459D01*
X80959420Y-105074468D01*
X80834990Y-105144382D01*
X80705668Y-105204178D01*
X80571512Y-105253828D01*
X80432583Y-105293307D01*
X80288940Y-105322591D01*
X80140642Y-105341652D01*
X80134976Y-105342097D01*
X80109886Y-105343115D01*
X80076388Y-105343514D01*
X80036645Y-105343353D01*
X79992817Y-105342690D01*
X79947066Y-105341583D01*
X79901552Y-105340092D01*
X79858438Y-105338275D01*
X79819884Y-105336191D01*
X79788052Y-105333898D01*
X79765102Y-105331455D01*
X79641847Y-105310152D01*
X79501586Y-105275796D01*
X79365931Y-105231564D01*
X79235287Y-105177772D01*
X79110058Y-105114736D01*
X78990648Y-105042771D01*
X78877464Y-104962194D01*
X78770908Y-104873320D01*
X78671387Y-104776465D01*
X78579305Y-104671945D01*
X78495067Y-104560074D01*
X78419078Y-104441170D01*
X78351741Y-104315547D01*
X78293463Y-104183522D01*
X78278218Y-104143664D01*
X78236581Y-104015829D01*
X78203522Y-103881563D01*
X78178884Y-103740266D01*
X78177021Y-103725310D01*
X78173545Y-103685020D01*
X78170989Y-103636957D01*
X78169355Y-103583495D01*
X78168641Y-103527006D01*
X78168848Y-103469865D01*
X78168922Y-103466246D01*
X79150313Y-103466246D01*
X79357783Y-103466246D01*
X79565254Y-103466246D01*
X79568608Y-103492968D01*
X79570272Y-103506014D01*
X79573177Y-103528516D01*
X79576960Y-103557659D01*
X79581319Y-103591121D01*
X79585953Y-103626578D01*
X79591253Y-103667616D01*
X79600564Y-103743590D01*
X79608112Y-103812040D01*
X79614062Y-103875337D01*
X79618579Y-103935854D01*
X79621829Y-103995964D01*
X79623975Y-104058041D01*
X79625183Y-104124458D01*
X79625618Y-104197586D01*
X79625626Y-104203354D01*
X79625667Y-104255979D01*
X79625597Y-104298755D01*
X79625351Y-104332959D01*
X79624864Y-104359867D01*
X79624070Y-104380757D01*
X79622904Y-104396905D01*
X79621299Y-104409588D01*
X79619191Y-104420082D01*
X79616514Y-104429665D01*
X79613202Y-104439612D01*
X79606792Y-104456600D01*
X79583237Y-104501456D01*
X79553154Y-104537155D01*
X79516479Y-104563748D01*
X79473145Y-104581289D01*
X79423087Y-104589828D01*
X79381298Y-104589315D01*
X79338293Y-104579477D01*
X79300900Y-104560037D01*
X79269521Y-104531287D01*
X79244556Y-104493516D01*
X79226405Y-104447017D01*
X79213716Y-104402924D01*
X79186959Y-104401177D01*
X79178428Y-104400884D01*
X79163380Y-104401820D01*
X79155183Y-104404449D01*
X79153592Y-104409257D01*
X79153896Y-104424090D01*
X79156923Y-104446593D01*
X79162241Y-104474966D01*
X79169420Y-104507407D01*
X79178028Y-104542115D01*
X79187634Y-104577287D01*
X79197808Y-104611122D01*
X79208118Y-104641820D01*
X79218134Y-104667577D01*
X79230804Y-104693880D01*
X79263815Y-104745219D01*
X79304883Y-104791985D01*
X79351952Y-104832006D01*
X79402970Y-104863109D01*
X79450646Y-104886733D01*
X79516058Y-104886733D01*
X79539021Y-104886665D01*
X79560772Y-104886042D01*
X79577003Y-104884232D01*
X79590926Y-104880604D01*
X79605757Y-104874526D01*
X79624708Y-104865364D01*
X79643575Y-104855141D01*
X79689405Y-104821682D01*
X79728984Y-104779493D01*
X79761558Y-104729473D01*
X79786372Y-104672524D01*
X79786641Y-104671740D01*
X79796202Y-104638303D01*
X79805369Y-104596163D01*
X79813712Y-104547797D01*
X79820803Y-104495685D01*
X79826213Y-104442304D01*
X79828001Y-104412249D01*
X79829232Y-104372193D01*
X79829862Y-104325213D01*
X79829920Y-104273502D01*
X79829436Y-104219252D01*
X79828440Y-104164654D01*
X79826964Y-104111900D01*
X79825036Y-104063182D01*
X79822687Y-104020692D01*
X79819947Y-103986623D01*
X79818849Y-103975558D01*
X79815961Y-103945727D01*
X79812565Y-103909940D01*
X79808997Y-103871754D01*
X79805594Y-103834729D01*
X79805593Y-103834717D01*
X79802227Y-103799225D01*
X79798202Y-103759169D01*
X79793713Y-103716299D01*
X79788961Y-103672367D01*
X79784142Y-103629124D01*
X79779454Y-103588321D01*
X79775097Y-103551709D01*
X79771268Y-103521039D01*
X79768164Y-103498062D01*
X79765985Y-103484530D01*
X79762314Y-103466246D01*
X79973152Y-103466246D01*
X80183990Y-103466246D01*
X80187696Y-103526722D01*
X80197195Y-103671143D01*
X80208766Y-103823161D01*
X80221323Y-103965055D01*
X80234848Y-104096716D01*
X80249326Y-104218033D01*
X80264740Y-104328897D01*
X80281073Y-104429198D01*
X80298308Y-104518826D01*
X80316429Y-104597672D01*
X80335419Y-104665625D01*
X80355261Y-104722576D01*
X80375940Y-104768416D01*
X80377218Y-104770814D01*
X80394410Y-104798208D01*
X80415586Y-104825396D01*
X80438475Y-104849925D01*
X80460804Y-104869338D01*
X80480300Y-104881180D01*
X80510316Y-104888971D01*
X80546461Y-104889216D01*
X80583140Y-104881479D01*
X80617298Y-104866432D01*
X80645883Y-104844747D01*
X80662820Y-104825732D01*
X80678230Y-104799958D01*
X80686525Y-104770708D01*
X80689050Y-104734548D01*
X80689034Y-104726373D01*
X80688163Y-104704556D01*
X80685155Y-104687298D01*
X80678867Y-104669822D01*
X80668152Y-104647350D01*
X80664902Y-104641126D01*
X80652004Y-104618673D01*
X80634953Y-104591106D01*
X80615586Y-104561347D01*
X80595741Y-104532315D01*
X80574778Y-104501504D01*
X80531773Y-104430073D01*
X80498568Y-104361599D01*
X80475481Y-104296706D01*
X80458953Y-104230199D01*
X80443869Y-104150616D01*
X80430817Y-104060030D01*
X80419802Y-103958474D01*
X80410829Y-103845980D01*
X80409240Y-103822696D01*
X80406146Y-103778550D01*
X80402759Y-103731465D01*
X80399232Y-103683462D01*
X80395717Y-103636567D01*
X80392367Y-103592802D01*
X80389333Y-103554191D01*
X80386768Y-103522758D01*
X80384825Y-103500526D01*
X80381463Y-103464485D01*
X80450919Y-103467938D01*
X80495896Y-103471296D01*
X80544797Y-103478749D01*
X80586541Y-103490517D01*
X80623206Y-103507399D01*
X80656873Y-103530195D01*
X80689620Y-103559704D01*
X80703918Y-103575009D01*
X80726225Y-103601347D01*
X80748882Y-103630389D01*
X80768699Y-103658164D01*
X80807927Y-103716590D01*
X80837142Y-103718290D01*
X80846265Y-103718736D01*
X80859246Y-103718357D01*
X80865034Y-103715422D01*
X80866356Y-103709070D01*
X80865094Y-103700713D01*
X80860188Y-103682408D01*
X80852309Y-103657592D01*
X80842236Y-103628436D01*
X80830748Y-103597110D01*
X80818624Y-103565783D01*
X80806641Y-103536628D01*
X80795580Y-103511813D01*
X80768471Y-103460248D01*
X80735404Y-103408094D01*
X80698992Y-103359561D01*
X80660733Y-103316478D01*
X80622122Y-103280675D01*
X80584655Y-103253979D01*
X80581159Y-103251976D01*
X80549170Y-103237481D01*
X80509958Y-103224891D01*
X80467054Y-103215185D01*
X80423992Y-103209346D01*
X80383865Y-103205925D01*
X80380401Y-103180649D01*
X80377129Y-103164496D01*
X80363742Y-103134320D01*
X80342608Y-103111611D01*
X80314773Y-103097302D01*
X80281284Y-103092325D01*
X80264715Y-103093460D01*
X80233803Y-103102950D01*
X80209077Y-103121353D01*
X80191507Y-103147799D01*
X80182062Y-103181419D01*
X80178492Y-103207464D01*
X79963294Y-103207464D01*
X79748096Y-103207464D01*
X79744184Y-103186368D01*
X79741884Y-103176298D01*
X79728362Y-103145911D01*
X79707048Y-103123027D01*
X79679076Y-103108598D01*
X79645581Y-103103577D01*
X79635203Y-103104021D01*
X79603219Y-103111900D01*
X79577111Y-103128913D01*
X79557980Y-103154131D01*
X79546929Y-103186625D01*
X79542970Y-103207979D01*
X79348151Y-103207162D01*
X79153333Y-103206344D01*
X79151823Y-103336295D01*
X79150313Y-103466246D01*
X78168922Y-103466246D01*
X78169976Y-103414444D01*
X78172025Y-103363117D01*
X78174994Y-103318257D01*
X78178884Y-103282237D01*
X78197777Y-103169125D01*
X78227471Y-103039655D01*
X78265337Y-102915516D01*
X78278995Y-102880162D01*
X79547532Y-102880162D01*
X79553716Y-102908375D01*
X79568426Y-102933736D01*
X79591690Y-102954032D01*
X79594922Y-102955908D01*
X79621190Y-102965437D01*
X79650765Y-102968779D01*
X79677893Y-102965188D01*
X79683375Y-102963041D01*
X79699897Y-102953212D01*
X79715639Y-102940133D01*
X79730582Y-102921421D01*
X79742183Y-102894018D01*
X79744575Y-102865876D01*
X79740456Y-102847420D01*
X80171771Y-102847420D01*
X80171796Y-102849952D01*
X80174478Y-102865876D01*
X80177355Y-102882952D01*
X80192204Y-102910451D01*
X80215726Y-102931272D01*
X80239334Y-102941470D01*
X80268914Y-102946021D01*
X80296719Y-102942643D01*
X80316469Y-102933258D01*
X80338096Y-102913684D01*
X80354158Y-102888228D01*
X80362969Y-102859736D01*
X80362842Y-102831054D01*
X80360439Y-102820612D01*
X80347946Y-102792225D01*
X80329423Y-102771137D01*
X80306601Y-102757200D01*
X80281209Y-102750266D01*
X80254978Y-102750186D01*
X80229636Y-102756813D01*
X80206915Y-102769998D01*
X80188544Y-102789593D01*
X80176252Y-102815450D01*
X80171771Y-102847420D01*
X79740456Y-102847420D01*
X79738533Y-102838801D01*
X79724836Y-102814597D01*
X79704260Y-102795073D01*
X79677583Y-102782034D01*
X79645581Y-102777286D01*
X79640134Y-102777361D01*
X79614874Y-102780756D01*
X79593802Y-102790134D01*
X79579853Y-102800519D01*
X79560629Y-102824023D01*
X79549846Y-102851308D01*
X79547532Y-102880162D01*
X78278995Y-102880162D01*
X78311950Y-102794859D01*
X78367886Y-102675836D01*
X78369322Y-102673035D01*
X78436711Y-102553207D01*
X79547095Y-102553207D01*
X79553661Y-102581851D01*
X79568517Y-102607446D01*
X79591690Y-102627742D01*
X79594922Y-102629617D01*
X79621190Y-102639147D01*
X79650765Y-102642489D01*
X79677893Y-102638898D01*
X79683375Y-102636750D01*
X79699897Y-102626922D01*
X79715639Y-102613842D01*
X79731020Y-102594125D01*
X79742503Y-102565362D01*
X79744614Y-102535134D01*
X79742998Y-102528336D01*
X80171777Y-102528336D01*
X80173341Y-102535134D01*
X80177915Y-102555014D01*
X80192382Y-102579315D01*
X80215726Y-102599356D01*
X80217055Y-102600165D01*
X80247362Y-102612316D01*
X80278331Y-102613809D01*
X80308014Y-102604867D01*
X80334465Y-102585714D01*
X80348396Y-102568474D01*
X80360340Y-102541183D01*
X80363141Y-102512932D01*
X80357577Y-102485601D01*
X80344426Y-102461069D01*
X80324464Y-102441219D01*
X80298470Y-102427930D01*
X80267220Y-102423082D01*
X80246758Y-102425141D01*
X80219504Y-102435480D01*
X80197830Y-102452851D01*
X80182284Y-102475372D01*
X80173416Y-102501161D01*
X80171777Y-102528336D01*
X79742998Y-102528336D01*
X79737617Y-102505698D01*
X79721777Y-102479307D01*
X79697360Y-102458218D01*
X79680661Y-102450467D01*
X79651030Y-102445052D01*
X79620630Y-102447635D01*
X79593802Y-102458218D01*
X79576850Y-102471456D01*
X79558717Y-102495761D01*
X79548789Y-102523761D01*
X79547095Y-102553207D01*
X78436711Y-102553207D01*
X78440378Y-102546687D01*
X78519892Y-102427726D01*
X78607686Y-102316332D01*
X78700824Y-102215665D01*
X79530218Y-102215665D01*
X79536784Y-102244310D01*
X79551640Y-102269904D01*
X79574813Y-102290201D01*
X79578045Y-102292076D01*
X79604313Y-102301605D01*
X79633888Y-102304947D01*
X79661016Y-102301357D01*
X79666498Y-102299209D01*
X79683020Y-102289380D01*
X79698761Y-102276301D01*
X79714143Y-102256584D01*
X79725626Y-102227820D01*
X79727737Y-102197593D01*
X79725745Y-102189214D01*
X80171771Y-102189214D01*
X80171796Y-102191746D01*
X80172781Y-102197593D01*
X80177355Y-102224746D01*
X80192204Y-102252245D01*
X80215726Y-102273066D01*
X80239334Y-102283264D01*
X80268914Y-102287815D01*
X80296719Y-102284437D01*
X80316469Y-102275052D01*
X80338096Y-102255478D01*
X80354158Y-102230022D01*
X80362969Y-102201530D01*
X80362842Y-102172848D01*
X80360439Y-102162406D01*
X80347946Y-102134019D01*
X80329423Y-102112931D01*
X80306601Y-102098994D01*
X80281209Y-102092060D01*
X80254978Y-102091980D01*
X80229636Y-102098607D01*
X80206915Y-102111792D01*
X80188544Y-102131387D01*
X80176252Y-102157244D01*
X80171771Y-102189214D01*
X79725745Y-102189214D01*
X79720740Y-102168156D01*
X79704900Y-102141766D01*
X79680483Y-102120677D01*
X79663784Y-102112925D01*
X79634153Y-102107510D01*
X79603753Y-102110094D01*
X79576925Y-102120677D01*
X79559972Y-102133915D01*
X79541840Y-102158219D01*
X79531912Y-102186219D01*
X79530218Y-102215665D01*
X78700824Y-102215665D01*
X78703582Y-102212684D01*
X78807398Y-102116962D01*
X78918957Y-102029344D01*
X79038079Y-101950009D01*
X79164584Y-101879138D01*
X79263549Y-101831931D01*
X79383802Y-101783792D01*
X79507228Y-101744497D01*
X79635673Y-101713471D01*
X79770985Y-101690137D01*
X79785942Y-101688273D01*
X79826232Y-101684797D01*
X79874294Y-101682242D01*
X79927757Y-101680607D01*
X79984245Y-101679893D01*
X80041386Y-101680100D01*
X80096807Y-101681228D01*
X80148134Y-101683277D01*
X80192994Y-101686246D01*
X80229014Y-101690137D01*
X80311859Y-101703495D01*
X80456099Y-101735140D01*
X80595064Y-101776710D01*
X80728814Y-101828231D01*
X80857410Y-101889726D01*
X80980911Y-101961221D01*
X81099377Y-102042738D01*
X81154151Y-102085313D01*
X81259702Y-102177804D01*
X81282881Y-102201530D01*
X81357745Y-102278159D01*
G37*
%TD*%
M02*
