M48
; DRILL file {KiCad 8.0.8-8.0.8-0~ubuntu24.04.1} date 2025-02-20T16:37:17+0530
; FORMAT={-:-/ absolute / metric / decimal}
; #@! TF.CreationDate,2025-02-20T16:37:17+05:30
; #@! TF.GenerationSoftware,Kicad,Pcbnew,8.0.8-8.0.8-0~ubuntu24.04.1
; #@! TF.FileFunction,MixedPlating,1,2
FMAT,2
METRIC
; #@! TA.AperFunction,Plated,PTH,ViaDrill
T1C0.300
; #@! TA.AperFunction,Plated,PTH,ComponentDrill
T2C0.550
; #@! TA.AperFunction,Plated,PTH,ComponentDrill
T3C0.850
; #@! TA.AperFunction,Plated,PTH,ComponentDrill
T4C1.000
; #@! TA.AperFunction,NonPlated,NPTH,ComponentDrill
T5C0.800
; #@! TA.AperFunction,NonPlated,NPTH,ComponentDrill
T6C0.900
; #@! TA.AperFunction,NonPlated,NPTH,ComponentDrill
T7C2.200
%
G90
G05
T1
X54.25Y-89.5
X55.5Y-77.0
X56.496Y-79.79
X56.5Y-81.5
X57.0Y-86.25
X58.5Y-86.0
X58.5Y-91.5
X58.5Y-95.5
X61.0Y-85.0
X63.0Y-78.5
X63.1Y-99.1
X63.5Y-90.0
X65.0Y-99.1
X65.425Y-94.925
X65.5Y-77.5
X66.1Y-96.8
X67.81Y-96.8
X68.0Y-91.5
X68.8Y-79.5
X71.0Y-93.0
X72.5Y-82.0
X72.5Y-84.7
X73.5Y-86.95
X75.5Y-81.3
X80.0Y-99.0
X80.5Y-94.0
X80.5Y-95.5
X81.0Y-99.0
X82.0Y-86.95
X82.0Y-90.0
X84.5Y-99.0
X87.5Y-86.2
X90.5Y-95.5
T4
X61.18Y-71.5
X61.92Y-102.0
X63.72Y-71.5
X64.46Y-102.0
X66.26Y-71.5
X67.0Y-102.0
X68.8Y-71.5
X69.54Y-102.0
X76.18Y-71.5
X78.72Y-71.5
X81.26Y-71.5
X81.5Y-77.225
X81.5Y-79.765
X83.8Y-71.5
T5
X89.945Y-85.0
X89.945Y-90.0
T6
X52.17Y-78.5
X52.17Y-81.5
T7
X54.0Y-72.0
X54.0Y-104.0
X91.0Y-72.0
X91.0Y-104.0
T2
G00X92.37Y-83.625
M15
G01X93.02Y-83.625
M16
G05
G00X92.37Y-91.375
M15
G01X93.02Y-91.375
M16
G05
T3
G00X88.62Y-83.775
M15
G01X89.17Y-83.775
M16
G05
G00X88.62Y-91.225
M15
G01X89.17Y-91.225
M16
G05
M30
